<svg xmlns="http://www.w3.org/2000/svg" viewBox="0 0 200 200" role="img" aria-label="Mão estendida recebendo uma xícara sobre um balcão">
  <circle cx="100" cy="100" r="94" fill="#EDE6DA"/>
  <rect x="16" y="122" width="168" height="12" rx="4" fill="#8A6A46"/>
  <path d="M74 78h50v28c0 14-11 24-25 24s-25-10-25-24z" fill="#FBF6EE"/>
  <path d="M124 86c12-3 20 3 20 12s-8 15-20 12" fill="none" stroke="#FBF6EE" stroke-width="9" stroke-linecap="round"/>
  <ellipse cx="99" cy="78" rx="25" ry="6" fill="#6F4E37"/>
  <g fill="none" stroke="#C9B49A" stroke-width="5" stroke-linecap="round">
    <path d="M90 54c-5-6 4-10-1-16"/><path d="M108 54c-5-6 4-10-1-16"/>
  </g>
  <path d="M24 176h34a26 26 0 0 0 26-22" fill="none" stroke="#D79E6C" stroke-width="20" stroke-linecap="round"/>
  <path d="M150 154a26 26 0 0 0 26 22h6" fill="none" stroke="#C98B5E" stroke-width="20" stroke-linecap="round"/>
</svg>
