<svg xmlns="http://www.w3.org/2000/svg" viewBox="0 0 200 200" role="img" aria-label="Restaurante">
  <circle cx="100" cy="100" r="94" fill="#FAEDE6"/>
  <circle cx="100" cy="44" r="24" fill="#FFFDF8"/>
  <path d="M84 40h32c0 10-7 17-16 17s-16-7-16-17z" fill="#D8503F"/>
  <g stroke="#8C5A3C" stroke-width="4" stroke-linecap="round"><path d="M110 26l-14 14"/><path d="M118 30l-14 14"/></g>
  <rect x="38" y="94" width="124" height="76" fill="#F4E3D3"/>
  <path d="M30 72h140v24H30z" fill="#D8503F"/>
  <g fill="#F4E3D3"><rect x="42" y="72" width="16" height="24"/><rect x="74" y="72" width="16" height="24"/><rect x="106" y="72" width="16" height="24"/><rect x="138" y="72" width="16" height="24"/></g>
  <rect x="82" y="118" width="36" height="52" rx="3" fill="#B0644F"/>
  <g fill="#CDE7F5"><rect x="48" y="112" width="24" height="24" rx="3"/><rect x="128" y="112" width="24" height="24" rx="3"/></g>
</svg>
